<svg width="150" height="50" viewBox="0 0 150 50" fill="none" xmlns="http://www.w3.org/2000/svg">
<g clip-path="url(#clip0_151_3743)">
<path d="M7.78087 26.5124C6.33802 26.5124 5.06791 26.1968 3.97052 25.5655C2.87314 24.9139 2.01962 24.018 1.40996 22.8775C0.800307 21.717 0.495483 20.3833 0.495483 18.8763C0.495483 17.064 0.942565 15.4757 1.83673 14.1115C2.75121 12.7471 4.04164 11.6984 5.70804 10.9653C7.39475 10.2324 9.36598 9.86583 11.6217 9.86583C12.6581 9.86583 13.5015 9.93703 14.1518 10.0796V9.43822C14.1518 7.89059 13.8673 6.74008 13.2983 5.98667C12.7293 5.21287 11.8656 4.82597 10.7072 4.82597C8.83761 4.82597 7.63862 5.81357 7.11026 7.78876C6.94768 8.35893 6.61237 8.60329 6.10432 8.52183L1.95866 7.78876C1.65382 7.72768 1.44045 7.59532 1.31852 7.3917C1.21691 7.18806 1.20675 6.91317 1.28805 6.56701C1.81642 4.48999 2.93413 2.88132 4.64115 1.74101C6.36852 0.580339 8.53281 0 11.134 0C14.2229 0 16.5701 0.834874 18.1755 2.50462C19.8013 4.17437 20.6141 6.60772 20.6141 9.80477V25.1685C20.6141 25.3925 20.5329 25.5858 20.3704 25.7487C20.2281 25.8913 20.0451 25.9625 19.8216 25.9625H15.8588C15.3711 25.9625 15.0663 25.6978 14.9444 25.1685L14.3347 22.2974H14.0908C13.5421 23.6413 12.7191 24.6797 11.6217 25.4128C10.5447 26.1459 9.26438 26.5124 7.78087 26.5124ZM7.14073 18.1432C7.14073 19.2225 7.41508 20.0879 7.96376 20.7395C8.53279 21.3707 9.29485 21.6864 10.25 21.6864C11.5099 21.6864 12.4752 21.1263 13.1458 20.0064C13.8165 18.8661 14.1518 17.237 14.1518 15.1195V13.5005C13.5828 13.3987 13.0442 13.3478 12.5362 13.3478C10.8698 13.3478 9.54888 13.7855 8.57342 14.6612C7.61829 15.5165 7.14073 16.6772 7.14073 18.1432ZM24.3939 1.34393C24.3939 1.11994 24.4652 0.936687 24.6073 0.794144C24.7699 0.631234 24.963 0.549789 25.1865 0.549789H29.2103C29.4338 0.549789 29.6168 0.62105 29.7589 0.763593C29.9216 0.906136 30.0231 1.09958 30.0638 1.34393L30.6735 4.33727H30.9173C31.4661 2.93224 32.2483 1.86319 33.2646 1.13013C34.3009 0.376697 35.5202 0 36.9224 0C38.4263 0 39.7167 0.397062 40.7937 1.19122C41.8911 1.98537 42.7345 3.11551 43.3238 4.58162H43.5678C44.4619 3.03405 45.4679 1.88356 46.5856 1.13013C47.7033 0.376697 48.953 0 50.3348 0C51.8388 0 53.1393 0.407245 54.2367 1.22175C55.3544 2.03628 56.2079 3.19696 56.7972 4.7038C57.3865 6.21066 57.6813 7.9924 57.6813 10.049V25.1685C57.6813 25.3925 57.5999 25.5858 57.4374 25.7487C57.295 25.8913 57.1122 25.9625 56.8887 25.9625H52.0115C51.788 25.9625 51.5948 25.8913 51.4323 25.7487C51.29 25.5858 51.2189 25.3925 51.2189 25.1685V10.5377C51.2189 9.05119 50.9345 7.91094 50.3654 7.11679C49.7963 6.32265 48.9734 5.92557 47.8962 5.92557C46.7176 5.92557 45.8133 6.39391 45.1833 7.3306C44.5737 8.26728 44.2688 9.6214 44.2688 11.3929V25.1685C44.2688 25.3925 44.1874 25.5858 44.0249 25.7487C43.8828 25.8913 43.6998 25.9625 43.4763 25.9625H38.599C38.3755 25.9625 38.1824 25.8913 38.0198 25.7487C37.8775 25.5858 37.8064 25.3925 37.8064 25.1685V10.5377C37.8064 9.05119 37.522 7.91094 36.9529 7.11679C36.3839 6.32265 35.5609 5.92557 34.4839 5.92557C33.3051 5.92557 32.4008 6.39391 31.7708 7.3306C31.1612 8.26728 30.8563 9.6214 30.8563 11.3929V25.1685C30.8563 25.3925 30.7751 25.5858 30.6126 25.7487C30.4703 25.8913 30.2873 25.9625 30.0638 25.9625H25.1865C24.963 25.9625 24.7699 25.8913 24.6073 25.7487C24.4652 25.5858 24.3939 25.3925 24.3939 25.1685V1.34393ZM60.8514 18.8763C60.8514 17.064 61.2986 15.4757 62.1928 14.1115C63.1072 12.7471 64.3976 11.6984 66.0641 10.9653C67.7506 10.2324 69.722 9.86583 71.9777 9.86583C73.0142 9.86583 73.8575 9.93703 74.5078 10.0796V9.43822C74.5078 7.89059 74.2232 6.74008 73.6543 5.98667C73.0852 5.21287 72.2216 4.82597 71.0632 4.82597C69.1937 4.82597 67.9946 5.81357 67.4662 7.78876C67.3036 8.35893 66.9684 8.60329 66.4603 8.52183L62.3146 7.78876C62.0098 7.72768 61.7964 7.59532 61.6745 7.3917C61.5729 7.18806 61.5628 6.91317 61.6439 6.56701C62.1723 4.48999 63.29 2.88132 64.9972 1.74101C66.7245 0.580339 68.8888 0 71.49 0C74.5789 0 76.926 0.834874 78.5316 2.50462C80.1572 4.17437 80.9702 6.60772 80.9702 9.80477V25.1685C80.9702 25.3925 80.8888 25.5858 80.7262 25.7487C80.5839 25.8913 80.4011 25.9625 80.1776 25.9625H76.2148C75.7271 25.9625 75.4222 25.6978 75.3004 25.1685L74.6906 22.2974H74.4469C73.898 23.6413 73.0751 24.6797 71.9777 25.4128C70.9007 26.1459 69.6204 26.5124 68.1369 26.5124C66.6534 26.5124 65.424 26.1968 64.3265 25.5655C63.2291 24.9139 62.3756 24.018 61.766 22.8775C61.1563 21.717 60.8514 20.3833 60.8514 18.8763ZM67.4968 18.1432C67.4968 19.2225 67.7711 20.0879 68.3197 20.7395C68.8888 21.3707 69.6508 21.6864 70.6059 21.6864C71.8659 21.6864 72.8312 21.1263 73.5019 20.0064C74.1724 18.8661 74.5078 17.237 74.5078 15.1195V13.5005C73.9387 13.3987 73.4002 13.3478 72.8921 13.3478C71.2258 13.3478 69.9048 13.7855 68.9295 14.6612C67.9743 15.5165 67.4968 16.6772 67.4968 18.1432ZM84.2623 21.4726C84.2623 21.0247 84.3842 20.6376 84.6281 20.3119L95.0532 5.68122H85.2986C85.0751 5.68122 84.882 5.60995 84.7195 5.46741C84.5773 5.3045 84.5061 5.11106 84.5061 4.88707V1.34393C84.5061 1.11994 84.5773 0.936687 84.7195 0.794144C84.882 0.631234 85.0751 0.549789 85.2986 0.549789H101.333C101.556 0.549789 101.739 0.631234 101.881 0.794144C102.044 0.936687 102.125 1.11994 102.125 1.34393V5.03978C102.125 5.48777 102.003 5.87465 101.759 6.20047L92.3097 19.2122C92.8787 19.1106 93.4579 19.0597 94.0472 19.0597C95.5105 19.0597 96.8517 19.1919 98.071 19.4566C99.3106 19.7011 100.591 20.1082 101.912 20.6784C102.379 20.8821 102.613 21.2281 102.613 21.717V25.2296C102.613 25.5554 102.511 25.7793 102.308 25.9014C102.105 26.0033 101.851 25.9931 101.546 25.871C100.022 25.3008 98.6704 24.9038 97.4918 24.6796C96.3334 24.4354 95.0633 24.3131 93.6814 24.3131C92.2995 24.3131 90.9786 24.4354 89.6577 24.6796C88.3572 24.9241 86.9143 25.3211 85.3292 25.871C85.0243 25.9728 84.7703 25.9728 84.567 25.871C84.364 25.7487 84.2623 25.5349 84.2623 25.2296V21.4726ZM103.954 13.2561C103.954 10.772 104.432 8.52182 105.387 6.50591C106.342 4.46963 107.653 2.88132 109.319 1.74101C111.006 0.580339 112.875 0 114.928 0C116.98 0 118.87 0.580339 120.537 1.74101C122.224 2.88132 123.544 4.46963 124.5 6.50591C125.475 8.52182 125.963 10.772 125.963 13.2561C125.963 15.7404 125.475 18.0008 124.5 20.037C123.544 22.0529 122.224 23.6413 120.537 24.802C118.87 25.9422 117.001 26.5124 114.928 26.5124C112.855 26.5124 111.006 25.9422 109.319 24.802C107.653 23.6413 106.342 22.0529 105.387 20.037C104.432 18.0008 103.954 15.7404 103.954 13.2561ZM110.66 13.2561C110.66 15.8422 111.026 17.8379 111.758 19.2428C112.489 20.6275 113.546 21.3198 114.928 21.3198C116.31 21.3198 117.377 20.6275 118.129 19.2428C118.881 17.8379 119.257 15.8422 119.257 13.2561C119.257 10.6701 118.881 8.68473 118.129 7.30007C117.377 5.89502 116.31 5.1925 114.928 5.1925C113.546 5.1925 112.489 5.89502 111.758 7.30007C111.026 8.68473 110.66 10.6701 110.66 13.2561ZM129.255 1.34393C129.255 1.11994 129.326 0.936687 129.468 0.794144C129.631 0.631234 129.824 0.549789 130.047 0.549789H134.071C134.295 0.549789 134.478 0.62105 134.62 0.763593C134.783 0.906136 134.884 1.09958 134.925 1.34393L135.534 4.33727H135.778C136.327 2.9526 137.13 1.88356 138.186 1.13013C139.263 0.376697 140.523 0 141.966 0C143.511 0 144.842 0.407245 145.959 1.22175C147.098 2.03628 147.971 3.19696 148.581 4.7038C149.191 6.21066 149.495 7.9924 149.495 10.049V25.1685C149.495 25.3925 149.414 25.5858 149.252 25.7487C149.109 25.8913 148.926 25.9625 148.703 25.9625H143.826C143.602 25.9625 143.409 25.8913 143.246 25.7487C143.104 25.5858 143.033 25.3925 143.033 25.1685V10.5377C143.033 9.05119 142.728 7.91094 142.119 7.11679C141.509 6.32265 140.645 5.92557 139.528 5.92557C138.288 5.92557 137.343 6.39391 136.693 7.3306C136.042 8.26728 135.717 9.6214 135.717 11.3929V25.1685C135.717 25.3925 135.636 25.5858 135.473 25.7487C135.331 25.8913 135.148 25.9625 134.925 25.9625H130.047C129.824 25.9625 129.631 25.8913 129.468 25.7487C129.326 25.5858 129.255 25.3925 129.255 25.1685V1.34393Z" fill="#171D27"/>
<path d="M17.4492 29.4743C17.0631 29.7798 16.9818 30.2888 17.2054 31.0016C17.4086 31.6329 17.8861 32.4167 18.638 33.3534C21.6659 37.1003 25.2731 40.2157 29.4594 42.7C33.6457 45.1843 38.1268 47.0169 42.9025 48.1979C47.6983 49.3994 52.5959 50 57.595 50C63.9965 50 70.093 49.0634 75.8848 47.1899C81.6765 45.3369 86.513 42.7304 90.3947 39.3706C91.7561 38.1693 92.4369 37.2123 92.4369 36.4995C92.4369 36.2347 92.3252 35.97 92.1017 35.7053C91.7968 35.4 91.431 35.2982 91.0042 35.4C90.5775 35.5016 89.9781 35.7562 89.2057 36.1635C85.4868 38.1184 80.9551 39.6761 75.6104 40.8368C70.2862 42.0178 64.7281 42.6083 58.9364 42.6083C51.7628 42.6083 44.833 41.631 38.1471 39.6761C31.4612 37.7212 25.5373 34.6669 20.3756 30.5129C19.6237 29.9224 19.0139 29.5455 18.5466 29.3826C18.0995 29.2197 17.7337 29.2504 17.4492 29.4743Z" fill="#FF6201"/>
<path d="M85.1808 31.0033C84.7541 31.4106 84.6423 31.8382 84.8456 32.2863C84.9879 32.6121 85.2622 32.7952 85.6687 32.836C86.075 32.8971 86.6542 32.8563 87.4061 32.7139C88.6254 32.4492 89.8955 32.2658 91.2164 32.164C92.5374 32.0826 93.6856 32.1029 94.661 32.225C95.6366 32.3676 96.2462 32.6121 96.4901 32.9581C96.8559 33.5081 96.7237 34.6686 96.0937 36.4403C95.4842 38.2118 94.6509 39.9324 93.5941 41.6022C93.1876 42.2741 92.9439 42.8035 92.8625 43.1906C92.7813 43.5774 92.883 43.9032 93.1674 44.1679C93.3502 44.3511 93.5535 44.4428 93.777 44.4428C94.3665 44.4428 95.22 43.9235 96.3377 42.8851C98.3495 41.1339 99.7618 39.0569 100.575 36.6541C101.022 35.4118 101.296 34.1087 101.398 32.7443C101.499 31.3801 101.347 30.4026 100.94 29.8121C100.554 29.2419 99.7009 28.7735 98.3799 28.4072C97.0794 28.0406 95.7686 27.8572 94.4476 27.8572C91.8667 27.8572 89.4179 28.4682 87.1014 29.69C86.2479 30.1584 85.6077 30.5961 85.1808 31.0033Z" fill="#FF6201"/>
</g>
<defs>
<clipPath id="clip0_151_3743">
<rect width="149" height="50" fill="white" transform="translate(0.5)"/>
</clipPath>
</defs>
</svg>
