<svg width="130" height="50" viewBox="0 0 130 50" fill="none" xmlns="http://www.w3.org/2000/svg">
<path fill-rule="evenodd" clip-rule="evenodd" d="M14.6774 8.2122V16.4363L7.33871 20.6574L0 24.879V33.4189V41.9587L6.8894 45.9665C10.6786 48.1705 14.0963 49.9856 14.4839 49.9999C14.8715 50.0142 18.3132 48.2295 22.1312 46.0338L29.0733 42.0421L28.9145 24.8171L28.7558 7.59209L22.1659 3.8023C18.5415 1.71798 15.3735 0.00715864 15.1267 1.03524e-05C14.8799 -0.00713794 14.6774 3.68853 14.6774 8.2122ZM42.235 25.0083V41.8247L48.2096 41.5858C54.8666 41.3201 56.5033 40.5832 58.7097 36.8578C59.7772 35.0558 59.9078 33.7644 59.9078 25.0065C59.9078 10.3668 58.8415 8.8347 48.3756 8.42963L42.235 8.19195V25.0083ZM48.8249 25.0458V36.4039L50.4586 36.215C53.0748 35.9136 53.5989 34.0312 53.6085 24.8963C53.6193 15.2539 53.2041 13.6884 50.6371 13.6884H48.8249V25.0458ZM14.6774 23.9498C14.6774 28.0261 14.8314 31.5138 15.0195 31.7009C15.4442 32.1232 27.8571 25.0327 27.8571 24.3673C27.8571 23.9158 17.5608 17.6396 15.5796 16.8837C14.8056 16.5882 14.6774 17.5931 14.6774 23.9498ZM64.8281 17.7182C63.431 19.2533 62.633 23.4178 62.633 29.1763C62.633 34.9349 63.431 39.0994 64.8281 40.6345C65.9507 41.8681 69.7016 42.0516 71.1016 40.9412C71.6174 40.532 72.3052 39.6945 72.6293 39.0803C73.1594 38.076 73.2835 38.1504 73.8706 39.8249C74.4762 41.5524 74.7248 41.6859 77.3314 41.6859H80.1399L79.7589 38.9219C79.5492 37.4022 79.3779 31.773 79.3779 26.4123V16.6668H76.3825C73.7867 16.6668 73.3871 16.8259 73.3871 17.8582C73.3871 18.5135 73.1822 19.0496 72.9324 19.0496C72.682 19.0496 72.1404 18.5135 71.7288 17.8582C70.7338 16.2743 66.2257 16.1825 64.8281 17.7182ZM82.3733 29.2073V41.7484L85.5184 41.5679L88.6636 41.388L88.8391 33.9419L89.0147 26.4957L91.6835 24.7087C94.2812 22.9693 94.3524 22.8376 94.3536 19.7591C94.3548 16.3249 94.368 16.3285 90.9503 18.8399C88.5156 20.6288 88.3641 20.6061 88.3641 18.4539C88.3641 16.7068 88.2976 16.6668 85.3687 16.6668H82.3733V29.2073ZM98.0086 18.2162C96.3192 20.3524 96.0161 22.5255 96.2497 30.8443C96.4235 37.0198 96.6283 38.2648 97.7091 39.7088C99.6207 42.2625 104.644 42.3852 105.438 39.8976C105.96 38.263 106.836 38.4048 107.288 40.1966C107.627 41.5375 107.964 41.6859 110.67 41.6859H113.675L113.301 39.8243C113.095 38.8003 112.926 33.1711 112.926 27.3148V16.6668H109.631C106.641 16.6668 106.336 16.7872 106.336 17.9708V19.2742L105.115 17.9708C103.308 16.042 99.6279 16.1694 98.0086 18.2162ZM115.323 19.0496V21.4324H118.382C120.737 21.4324 121.368 21.6218 121.124 22.2544C119.992 25.1894 115.323 40.1686 115.323 40.8674C115.323 41.5727 116.606 41.693 122.661 41.5554L130 41.388V39.3031V37.2182L126.609 36.9203L123.217 36.6225L126.382 26.9651C128.122 21.6534 129.401 17.1637 129.224 16.9873C129.047 16.811 125.847 16.6668 122.112 16.6668H115.323V19.0496ZM69.8136 21.9887C69.1522 23.2177 68.9473 34.3982 69.5572 35.9779C70.0622 37.2861 72.0188 37.158 72.7671 35.7683C73.5524 34.3082 73.5788 24.3947 72.803 22.3646C72.1105 20.5543 70.6823 20.375 69.8136 21.9887ZM103.038 22.1383C102.849 22.8966 102.771 26.466 102.867 30.0699C103.041 36.6159 103.043 36.6225 104.539 36.6225H106.037V28.8785C106.037 21.3377 106.002 21.1298 104.71 20.9469C103.739 20.8099 103.291 21.1292 103.038 22.1383Z" fill="#F85506"/>
</svg>
