<svg width="106" height="50" viewBox="0 0 106 50" fill="none" xmlns="http://www.w3.org/2000/svg">
<g clip-path="url(#clip0_151_3749)">
<path d="M11.7827 3.87755V18.0612C11.7827 18.0612 16.7633 18.0612 19.4061 17.8571C21.5407 17.449 21.8456 17.2449 22.2522 15.2041L23.0653 12.1429H25.3015L24.895 18.7755L25.0983 25.7143H22.8621L22.2522 23.0612C21.6423 21.1224 20.9308 20.7143 19.4061 20.6122C17.4748 20.4082 11.7827 20.4082 11.7827 20.4082V32.3469C11.7827 34.5918 12.9008 35.6122 15.6452 35.6122H23.6752C26.1147 35.6122 28.6559 35.4082 30.1805 31.7347L32.2135 27.1429H34.1447C33.9414 28.0612 33.0266 36.5306 32.8233 38.4694C32.8233 38.4694 25.6065 38.2653 22.5571 38.2653H8.7333H0.5V36.2245L3.14279 35.6122C5.07406 35.2041 5.68393 34.6939 5.68393 33.1633C5.68393 33.1633 5.88722 27.9592 5.88722 19.3878C5.88722 10.8163 5.68393 5.61224 5.68393 5.61224C5.68393 3.87755 5.07406 3.46939 3.14279 3.16327L0.5 2.44898V0.408163L8.53001 0.612245H23.7769C26.8262 0.510204 32.0102 0 32.0102 0C32.0102 0 31.8069 3.26531 31.6036 10.9184H29.469L28.6559 8.26531C27.9443 4.79592 26.8262 3.06122 24.6917 3.06122H12.6975C11.7827 3.06122 11.7827 3.26531 11.7827 3.87755ZM42.683 5.30612H45.0208V13.3673L52.8475 12.9592L52.4409 16.6327L44.8175 16.0204V30.2041C44.8175 34.1837 46.1389 35.8163 48.4768 35.8163C50.5097 35.8163 52.136 34.6939 52.6442 33.6735L53.7623 35C52.6442 37.6531 49.3916 38.9796 46.3422 38.9796C42.5813 38.9796 39.4303 36.7347 39.4303 32.2449V16.2245H34.8562V14.2857C38.7188 13.9796 41.5649 11.6327 42.683 5.30612ZM59.1496 30.102L60.6742 33.7755C61.2841 35.3061 62.6055 36.8367 65.6549 36.8367C68.9075 36.8367 70.2289 35.102 70.2289 32.9592C70.2289 26.4286 57.4216 28.3673 57.4216 19.4898C57.4216 14.4898 61.3858 12.1429 66.5697 12.1429C68.9075 12.1429 72.2619 12.551 73.9898 13.2653C73.5833 15.2041 73.38 17.6531 73.38 19.5918L71.4487 19.7959L70.1273 15.9184C69.7207 15 68.196 14.1837 66.2648 14.1837C63.9269 14.1837 61.6907 15.102 61.6907 17.6531C61.6907 23.5714 74.9046 22.2449 74.9046 31.1224C74.9046 36.1224 70.5339 38.7755 65.1467 38.7755C61.1825 38.7755 57.1166 37.2449 57.1166 37.2449C57.5232 35 57.3199 32.449 57.1166 30C57.2183 30.102 59.1496 30.102 59.1496 30.102ZM73.9898 48.4694C74.5997 46.3265 74.9046 43.6735 75.3112 41.2245L77.4458 41.0204L78.2589 45C78.4622 45.9184 78.9705 46.7347 80.4951 46.7347C82.9346 46.7347 86.1873 45.2041 89.3383 39.7959C88.0169 36.5306 83.9511 26.0204 80.2919 17.9592C79.3771 15.8163 79.1738 15.6122 77.8524 15.3061L76.8359 14.898V12.9592L82.6297 13.1633L89.6433 12.7551V14.6939L87.9153 15.102C86.5939 15.3061 85.984 16.0204 85.984 16.8367C85.984 17.0408 85.984 17.2449 86.1873 17.6531C86.5939 18.7755 89.6433 27.449 91.8795 33.1633C93.8107 29.1837 97.3683 20.102 97.9782 18.5714C98.1815 17.7551 98.3848 17.6531 98.3848 17.0408C98.3848 16.0204 97.7749 15.5102 96.4535 15.102L95.1321 14.6939V12.7551L100.519 12.9592L105.5 12.7551V14.6939L104.585 15.4082C102.654 16.2245 102.451 16.3265 101.739 17.9592L93.3025 37.7551C88.3219 49.0816 83.1379 50 79.5803 50C77.2425 50 75.5145 49.3878 73.9898 48.4694Z" fill="#F1641E"/>
</g>
<defs>
<clipPath id="clip0_151_3749">
<rect width="105" height="50" fill="white" transform="translate(0.5)"/>
</clipPath>
</defs>
</svg>
