<svg width="24" height="24" viewBox="0 0 24 24" fill="none" xmlns="http://www.w3.org/2000/svg">
<path d="M22.3241 1.85489e-05H1.74941C1.51937 -0.0010407 1.29141 0.0432771 1.07869 0.130412C0.865961 0.217547 0.672687 0.345772 0.510029 0.507681C0.347372 0.66959 0.218553 0.861973 0.131015 1.07372C0.0434773 1.28547 -0.00104552 1.51238 1.86347e-05 1.74135V22.2586C1.86347e-05 23.1866 0.776929 24 1.74941 24H22.2437C22.4739 24.0012 22.702 23.957 22.9149 23.87C23.1278 23.7829 23.3212 23.6547 23.484 23.4928C23.6468 23.3309 23.7757 23.1384 23.8633 22.9266C23.951 22.7148 23.9955 22.4877 23.9945 22.2586V1.70268C24.0735 0.774684 23.2953 1.85489e-05 22.3241 1.85489e-05ZM7.11678 20.4H3.57916V8.98H7.11812L7.11678 20.4ZM5.32855 7.39334C5.05749 7.39475 4.78885 7.34263 4.53817 7.24C4.28749 7.13736 4.05976 6.98624 3.86816 6.7954C3.67655 6.60455 3.52488 6.37777 3.42193 6.12818C3.31899 5.87859 3.2668 5.61115 3.2684 5.34134C3.2684 4.22001 4.20069 3.29068 5.32855 3.29068C6.45641 3.29068 7.39138 4.22001 7.39138 5.34134C7.39138 6.46267 6.5341 7.39334 5.32855 7.39334ZM20.5345 20.4H16.9956V14.864C16.9956 13.548 16.9567 11.8067 15.1297 11.8067C13.2624 11.8067 12.9905 13.2773 12.9905 14.748V20.4H9.45153V8.98H12.9128V10.5667H12.9516C13.4566 9.63867 14.5858 8.70934 16.3352 8.70934C19.9519 8.70934 20.6122 11.032 20.6122 14.2067V20.4H20.5345Z" fill="#9E9E9E"/>
</svg>
