<svg width="20" height="20" viewBox="0 0 20 20" fill="none" xmlns="http://www.w3.org/2000/svg">
<path d="M18.6034 1.54574e-05H1.45784C1.26615 -0.000867252 1.07618 0.0360643 0.898906 0.108677C0.721634 0.181289 0.560573 0.288143 0.425025 0.423067C0.289476 0.557991 0.182128 0.718311 0.109179 0.894766C0.0362311 1.07122 -0.000871264 1.26031 1.55289e-05 1.45112V18.5489C1.55289e-05 19.3222 0.64744 20 1.45784 20H18.5365C18.7282 20.001 18.9183 19.9642 19.0957 19.8916C19.2731 19.8191 19.4343 19.7123 19.57 19.5773C19.7057 19.4424 19.8131 19.282 19.8861 19.1055C19.9591 18.929 19.9963 18.7398 19.9954 18.5489V1.4189C20.0613 0.64557 19.4127 1.54574e-05 18.6034 1.54574e-05ZM5.93065 17H2.98263V7.48334H5.93176L5.93065 17ZM4.44046 6.16112C4.21458 6.1623 3.99071 6.11886 3.78181 6.03333C3.57291 5.9478 3.38313 5.82187 3.22346 5.66283C3.06379 5.50379 2.9374 5.31481 2.85161 5.10681C2.76582 4.89882 2.72233 4.67596 2.72366 4.45112C2.72366 3.51668 3.50057 2.74223 4.44046 2.74223C5.38034 2.74223 6.15948 3.51668 6.15948 4.45112C6.15948 5.38556 5.44508 6.16112 4.44046 6.16112ZM17.1121 17H14.163V12.3867C14.163 11.29 14.1306 9.83889 12.6081 9.83889C11.052 9.83889 10.8254 11.0644 10.8254 12.29V17H7.87627V7.48334H10.7607V8.80556H10.793C11.2139 8.03222 12.1549 7.25778 13.6127 7.25778C16.6266 7.25778 17.1769 9.19333 17.1769 11.8389V17H17.1121Z" fill="#F27F0C"/>
</svg>
