<svg width="158" height="50" viewBox="0 0 158 50" fill="none" xmlns="http://www.w3.org/2000/svg">
<g clip-path="url(#clip0_151_3734)">
<mask id="mask0_151_3734" style="mask-type:luminance" maskUnits="userSpaceOnUse" x="0" y="0" width="51" height="51">
<path d="M50.9654 50.3633H0.41333V0.430908H50.9654V50.3633Z" fill="white"/>
</mask>
<g mask="url(#mask0_151_3734)">
<path fill-rule="evenodd" clip-rule="evenodd" d="M0.398071 26.1794C0.398071 39.5618 11.9758 49.9618 25.4392 49.9618C39.5311 49.9618 50.9502 38.7912 50.9502 25.15C50.9502 17.1706 47.0216 10.1706 41.2073 5.4853L36.963 12.6912C40.474 15.6265 42.8835 20.1559 42.8835 25.2529C42.8835 34.5177 35.0773 42.1368 25.4392 42.1368C15.8519 42.1368 8.04569 34.5191 8.04569 24.9956C8.04569 23.8632 8.15045 22.7309 8.35998 21.6485L0.398071 26.1794ZM33.2963 1.26471C30.8868 0.389713 28.7392 0.0294189 26.5915 0.0294189C24.9677 0.0294189 23.5534 0.235301 22.5058 0.441184L17.0582 9.70589C19.0487 8.57354 21.6153 7.95589 24.3915 7.95589C26.0153 7.95589 27.482 8.16177 29.0011 8.57354L33.2963 1.26471Z" fill="#F4E712"/>
</g>
<path fill-rule="evenodd" clip-rule="evenodd" d="M72.4686 16.497C70.5141 16.497 68.7406 17.125 67.3802 18.2794L66.9836 16.9088H63.5743V33.975H67.916V24.6985C67.916 22.7132 69.2689 20.7 71.8565 20.7C73.8814 20.7 75.0892 22.1 75.0892 24.447V33.975H79.4323V24.1294C79.4323 19.422 76.7639 16.497 72.4686 16.497ZM127.648 25.0455C127.648 27.7853 125.828 29.7735 123.323 29.7735C120.815 29.7735 118.995 27.7853 118.995 25.0455C118.995 22.3073 120.815 20.3205 123.322 20.3205C125.828 20.3205 127.648 22.3073 127.648 25.0455ZM123.323 16.1191C118.425 16.1191 114.589 20.0397 114.589 25.0455C114.589 30.0529 118.425 33.975 123.322 33.975C128.218 33.975 132.056 30.0529 132.056 25.0455C132.056 20.0397 128.22 16.1191 123.323 16.1191ZM101.739 25.0455C101.739 27.7853 99.9192 29.7735 97.4139 29.7735C94.9056 29.7735 93.0858 27.7853 93.0858 25.0455C93.0858 22.3073 94.9056 20.3205 97.4124 20.3205C99.9192 20.3205 101.739 22.3073 101.739 25.0455ZM97.4139 16.1191C92.5156 16.1191 88.6798 20.0397 88.6798 25.0455C88.6798 30.0529 92.5156 33.975 97.4124 33.975C102.309 33.975 106.145 30.0529 106.145 25.0455C106.145 20.0397 102.311 16.1191 97.4139 16.1191ZM150.196 16.497C148.241 16.497 146.469 17.125 145.108 18.2794L144.712 16.9088H141.302V33.975H145.645V24.6985C145.645 22.7132 146.998 20.7 149.585 20.7C151.61 20.7 152.818 22.1 152.818 24.447V33.975H157.161V24.1294C157.161 19.422 154.493 16.497 150.196 16.497Z" fill="#F4E712"/>
</g>
<defs>
<clipPath id="clip0_151_3734">
<rect width="157.143" height="50" fill="white" transform="translate(0.428589)"/>
</clipPath>
</defs>
</svg>
