<svg width="28" height="23" viewBox="0 0 28 23" fill="none" xmlns="http://www.w3.org/2000/svg">
<path d="M16.9133 0.557096C18.7476 2.20185 20.1773 4.0323 21.2023 6.04844C22.1734 8.06459 22.659 9.86851 22.659 11.4602C22.2274 11.1949 21.6069 11.0623 20.7977 11.0623C19.2331 11.0623 17.9383 11.6194 16.9133 12.7336C15.8343 13.7947 15.2948 15.1742 15.2948 16.872C15.2948 18.6759 15.8882 20.1615 17.0751 21.3287C18.262 22.4429 19.7726 23 21.6069 23C23.5491 23 25.1137 22.3898 26.3006 21.1695C27.4335 19.9492 28 18.4371 28 16.6332C28 13.2376 27.3526 10.1603 26.0578 7.40138C24.763 4.58939 23.0366 2.36102 20.8786 0.716263C20.1773 0.238754 19.422 0 18.6127 0C17.8574 0 17.2909 0.185699 16.9133 0.557096ZM1.6185 0.557096C3.4528 2.20185 4.88247 4.0323 5.90752 6.04844C6.87861 8.06459 7.36416 9.86851 7.36416 11.4602C6.98652 11.1949 6.36609 11.0623 5.50289 11.0623C3.93834 11.0623 2.64355 11.6194 1.6185 12.7336C0.539499 13.7947 0 15.1742 0 16.872C0 18.6759 0.620424 20.1615 1.86127 21.3287C3.04817 22.4429 4.53179 23 6.31214 23C8.25434 23 9.81888 22.3898 11.0058 21.1695C12.1927 19.9492 12.7861 18.4371 12.7861 16.6332C12.7861 13.2376 12.1387 10.1603 10.8439 7.40138C9.49518 4.58939 7.74181 2.36102 5.58382 0.716263C4.88247 0.238754 4.12717 0 3.31792 0C2.56262 0 1.99615 0.185699 1.6185 0.557096Z" fill="#F27F0C"/>
</svg>
