<svg width="24" height="24" viewBox="0 0 24 24" fill="none" xmlns="http://www.w3.org/2000/svg">
<path d="M12 0C9.62663 0 7.30655 0.703788 5.33316 2.02236C3.35977 3.34094 1.8217 5.21508 0.913451 7.4078C0.00519941 9.60051 -0.232441 12.0133 0.230582 14.3411C0.693605 16.6689 1.83649 18.807 3.51472 20.4853C5.19295 22.1635 7.33115 23.3064 9.65892 23.7694C11.9867 24.2324 14.3995 23.9948 16.5922 23.0865C18.7849 22.1783 20.6591 20.6402 21.9776 18.6668C23.2962 16.6934 24 14.3734 24 12C23.9968 8.81837 22.7315 5.76797 20.4818 3.51823C18.232 1.26848 15.1816 0.00317686 12 0ZM19.1268 9.2556V10.0308C19.1268 10.0901 19.115 10.1489 19.0919 10.2035C19.0688 10.2582 19.0351 10.3077 18.9925 10.3491C18.95 10.3905 18.8997 10.4229 18.8444 10.4445C18.7891 10.4661 18.7301 10.4764 18.6708 10.4748C17.4038 10.3853 16.1916 9.92264 15.1872 9.1452V14.8188C15.1869 15.4467 15.0616 16.0683 14.8184 16.6473C14.5753 17.2262 14.2193 17.7509 13.7712 18.1908C13.3194 18.6422 12.7821 18.9988 12.1907 19.2399C11.5993 19.481 10.9658 19.6016 10.3272 19.5948C9.04305 19.5929 7.81051 19.0891 6.8928 18.1908C6.30887 17.6021 5.88828 16.8715 5.6724 16.0709C5.45652 15.2703 5.4528 14.4273 5.6616 13.6248C5.8524 12.8544 6.2376 12.1464 6.7812 11.5692C7.1866 11.0737 7.69761 10.6751 8.27688 10.4025C8.85614 10.1299 9.48901 9.99016 10.1292 9.9936H11.1132V12.0372C11.1136 12.0965 11.1014 12.1553 11.0774 12.2096C11.0533 12.2638 11.0179 12.3123 10.9736 12.3518C10.9294 12.3914 10.8772 12.421 10.8205 12.4387C10.7639 12.4565 10.7041 12.462 10.6452 12.4548C10.0739 12.2832 9.45823 12.3401 8.92805 12.6136C8.39787 12.887 7.99457 13.3556 7.80318 13.9207C7.61178 14.4857 7.64723 15.1029 7.90206 15.6423C8.1569 16.1817 8.6112 16.601 9.1692 16.812C9.4932 16.998 9.8556 17.1072 10.2276 17.1324C10.5156 17.1444 10.8036 17.1084 11.0772 17.022C11.534 16.8679 11.9312 16.5751 12.2137 16.1845C12.4961 15.7939 12.6496 15.3248 12.6528 14.8428V4.5048C12.6528 4.39043 12.6982 4.28073 12.7789 4.19975C12.8597 4.11877 12.9692 4.07312 13.0836 4.0728H14.7816C14.8919 4.07294 14.998 4.11528 15.0781 4.19114C15.1582 4.26701 15.2063 4.37064 15.2124 4.4808C15.2743 5.01027 15.4425 5.5218 15.7068 5.98472C15.9712 6.44764 16.3263 6.85242 16.7508 7.1748C17.3245 7.60547 18.0059 7.86955 18.72 7.938C18.827 7.94715 18.927 7.99473 19.0016 8.07195C19.0761 8.14917 19.1202 8.25079 19.1256 8.358L19.1268 9.2556Z" fill="#9E9E9E"/>
</svg>
