<svg width="20" height="16" viewBox="0 0 20 16" fill="none" xmlns="http://www.w3.org/2000/svg">
<path fill-rule="evenodd" clip-rule="evenodd" d="M10 0.5C8.89209 0.5 7.6 0.52675 6.34047 0.563053L6.2893 0.564964C5.00744 0.602223 3.97302 0.631839 3.15814 0.770365C2.30884 0.914623 1.60372 1.19072 1.04 1.78591C0.474419 2.383 0.227907 3.12149 0.111628 4.00519C6.93077e-09 4.85545 0 5.93309 0 7.2725V8.72846C0 10.0659 6.93077e-09 11.1436 0.111628 11.9948C0.226977 12.8785 0.474419 13.617 1.04 14.2141C1.60372 14.8102 2.30884 15.0854 3.15814 15.2296C3.97302 15.3682 5.00744 15.3978 6.2893 15.435L6.34047 15.4369C7.60093 15.4732 8.89209 15.5 10 15.5C11.1079 15.5 12.4 15.4732 13.6595 15.4369L13.7107 15.435C14.9926 15.3978 16.027 15.3682 16.8419 15.2296C17.6912 15.0854 18.3963 14.8093 18.96 14.2141C19.5256 13.617 19.773 12.8785 19.8884 11.9948C20 11.1445 20 10.0669 20 8.7275V7.27154C20 5.93309 20 4.85545 19.8884 4.00519C19.773 3.12149 19.5256 2.383 18.96 1.78591C18.3963 1.18976 17.6912 0.914623 16.8419 0.770365C16.027 0.631839 14.9926 0.602223 13.7098 0.564964L13.6595 0.563053C12.44 0.525039 11.2201 0.504019 10 0.5ZM8.9507 10.5322C8.84461 10.5944 8.72447 10.6269 8.60229 10.6265C8.48012 10.6261 8.36019 10.5927 8.25452 10.5297C8.14884 10.4668 8.06112 10.3764 8.00013 10.2677C7.93914 10.159 7.90702 10.0357 7.90698 9.91023V6.08882C7.90702 5.96334 7.93914 5.84008 8.00013 5.73135C8.06112 5.62263 8.14884 5.53227 8.25452 5.4693C8.36019 5.40633 8.48012 5.37296 8.60229 5.37254C8.72447 5.37211 8.84461 5.40465 8.9507 5.46688L12.2065 7.37759C12.3132 7.44028 12.4019 7.53082 12.4636 7.64004C12.5253 7.74925 12.5577 7.87327 12.5577 7.99952C12.5577 8.12578 12.5253 8.24979 12.4636 8.35901C12.4019 8.46822 12.3132 8.55876 12.2065 8.62146L8.9507 10.5322Z" fill="#F27F0C"/>
</svg>
