<svg width="24" height="18" viewBox="0 0 24 18" fill="none" xmlns="http://www.w3.org/2000/svg">
<path fill-rule="evenodd" clip-rule="evenodd" d="M12 0C10.6705 0 9.12 0.0320999 7.60856 0.075664L7.54716 0.0779566C6.00893 0.122667 4.76763 0.158206 3.78977 0.324438C2.7706 0.497548 1.92447 0.828864 1.248 1.54309C0.569302 2.2596 0.273488 3.14579 0.133954 4.20623C8.31693e-09 5.22655 0 6.51971 0 8.127V9.87415C0 11.4791 8.31693e-09 12.7723 0.133954 13.7938C0.272372 14.8542 0.569302 15.7404 1.248 16.4569C1.92447 17.1723 2.7706 17.5025 3.78977 17.6756C4.76763 17.8418 6.00893 17.8773 7.54716 17.922L7.60856 17.9243C9.12112 17.9679 10.6705 18 12 18C13.3295 18 14.88 17.9679 16.3914 17.9243L16.4528 17.922C17.9911 17.8773 19.2324 17.8418 20.2102 17.6756C21.2294 17.5025 22.0755 17.1711 22.752 16.4569C23.4307 15.7404 23.7276 14.8542 23.866 13.7938C24 12.7735 24 11.4803 24 9.873V8.12585C24 6.51971 24 5.22655 23.866 4.20623C23.7276 3.14579 23.4307 2.2596 22.752 1.54309C22.0755 0.827718 21.2294 0.497548 20.2102 0.324438C19.2324 0.158206 17.9911 0.122667 16.4517 0.0779566L16.3914 0.075664C14.928 0.0300463 13.4641 0.00482272 12 0ZM10.7408 12.0386C10.6135 12.1133 10.4694 12.1523 10.3228 12.1518C10.1761 12.1513 10.0322 12.1113 9.90542 12.0357C9.77861 11.9601 9.67335 11.8517 9.60016 11.7212C9.52697 11.5908 9.48842 11.4428 9.48837 11.2923V6.70658C9.48842 6.55601 9.52697 6.40809 9.60016 6.27763C9.67335 6.14716 9.77861 6.03872 9.90542 5.96316C10.0322 5.88759 10.1761 5.84755 10.3228 5.84704C10.4694 5.84653 10.6135 5.88557 10.7408 5.96026L14.6478 8.2531C14.7759 8.32834 14.8823 8.43698 14.9563 8.56804C15.0303 8.6991 15.0693 8.84792 15.0693 8.99943C15.0693 9.15093 15.0303 9.29975 14.9563 9.43081C14.8823 9.56187 14.7759 9.67052 14.6478 9.74575L10.7408 12.0386Z" fill="#9E9E9E"/>
</svg>
